G04 #@! TF.GenerationSoftware,KiCad,Pcbnew,(5.1.4-0-10_14)*
G04 #@! TF.CreationDate,2020-11-29T23:03:10+01:00*
G04 #@! TF.ProjectId,haigha,68616967-6861-42e6-9b69-6361645f7063,2.1*
G04 #@! TF.SameCoordinates,Original*
G04 #@! TF.FileFunction,Copper,L1,Top*
G04 #@! TF.FilePolarity,Positive*
%FSLAX46Y46*%
G04 Gerber Fmt 4.6, Leading zero omitted, Abs format (unit mm)*
G04 Created by KiCad (PCBNEW (5.1.4-0-10_14)) date 2020-11-29 23:03:10*
%MOMM*%
%LPD*%
G04 APERTURE LIST*
%ADD10C,2.153000*%
%ADD11C,1.524000*%
%ADD12C,2.000000*%
%ADD13O,2.500000X1.700000*%
%ADD14C,0.600000*%
%ADD15C,0.250000*%
G04 APERTURE END LIST*
D10*
X67000000Y-66345000D03*
X57000000Y-66345000D03*
X62000000Y-68445000D03*
X46241165Y-42113861D03*
X36279218Y-42985419D03*
X41443219Y-44641649D03*
D11*
X127111400Y-34672000D03*
X127111400Y-37212000D03*
X127111400Y-39752000D03*
X127111400Y-42292000D03*
X127111400Y-44832000D03*
X127111400Y-47372000D03*
X127111400Y-49912000D03*
X127111400Y-52452000D03*
X127111400Y-54992000D03*
X127111400Y-57532000D03*
X127111400Y-60072000D03*
X127111400Y-62612000D03*
X142331400Y-62612000D03*
X142331400Y-60072000D03*
X142331400Y-57532000D03*
X142331400Y-54992000D03*
X142331400Y-52452000D03*
X142331400Y-49912000D03*
X142331400Y-47372000D03*
X142331400Y-44832000D03*
X142331400Y-42292000D03*
X142331400Y-39752000D03*
X142331400Y-37212000D03*
X142331400Y-34672000D03*
D10*
X112173142Y-80013577D03*
X102513883Y-77425387D03*
X107887032Y-76691038D03*
X121000000Y-68720000D03*
X111000000Y-68720000D03*
X116000000Y-70820000D03*
X130977488Y-87739122D03*
X121914410Y-83512939D03*
X127333448Y-83722784D03*
X103000000Y-66345000D03*
X93000000Y-66345000D03*
X98000000Y-68445000D03*
X85000000Y-62970000D03*
X75000000Y-62970000D03*
X80000000Y-65070000D03*
X49204865Y-75989461D03*
X39242918Y-76861019D03*
X44406919Y-78517249D03*
X121000000Y-51720000D03*
X111000000Y-51720000D03*
X116000000Y-53820000D03*
X103000000Y-49340000D03*
X93000000Y-49340000D03*
X98000000Y-51440000D03*
X85000000Y-45970000D03*
X75000000Y-45970000D03*
X80000000Y-48070000D03*
X67000000Y-49340000D03*
X57000000Y-49340000D03*
X62000000Y-51440000D03*
X47722765Y-59049161D03*
X37760818Y-59920719D03*
X42924819Y-61576949D03*
X121000000Y-34720000D03*
X111000000Y-34720000D03*
X116000000Y-36820000D03*
X103000000Y-32340000D03*
X93000000Y-32340000D03*
X98000000Y-34440000D03*
X85000000Y-28980000D03*
X75000000Y-28980000D03*
X80000000Y-31080000D03*
X67000000Y-32340000D03*
X57000000Y-32340000D03*
X62000000Y-34440000D03*
D12*
X127660000Y-74950000D03*
X127660000Y-68450000D03*
D13*
X131000000Y-70300000D03*
X132500000Y-74500000D03*
X136500000Y-74500000D03*
X139500000Y-74500000D03*
X136500000Y-68550000D03*
X139500000Y-68550000D03*
X131000000Y-72750000D03*
X132500000Y-68550000D03*
D14*
X139591000Y-51660400D03*
X125344600Y-51036600D03*
D15*
X80000000Y-65070000D02*
X80066400Y-65003600D01*
X109844300Y-62864700D02*
X122467300Y-62864700D01*
X122467300Y-62864700D02*
X124207600Y-64605000D01*
X124207600Y-64605000D02*
X128235600Y-64605000D01*
X128235600Y-64605000D02*
X142331400Y-50509200D01*
X142331400Y-50509200D02*
X142331400Y-49912000D01*
X80000000Y-65070000D02*
X91902000Y-65070000D01*
X91902000Y-65070000D02*
X92387499Y-64584501D01*
X108124499Y-64584501D02*
X108706500Y-64002500D01*
X92387499Y-64584501D02*
X108124499Y-64584501D01*
X108706500Y-64002500D02*
X109844300Y-62864700D01*
X122451000Y-66277900D02*
X123016300Y-65712600D01*
X123016300Y-65712600D02*
X129070800Y-65712600D01*
X129070800Y-65712600D02*
X142331400Y-52452000D01*
X120542590Y-66277900D02*
X120920100Y-66277900D01*
X119860989Y-66959501D02*
X120542590Y-66277900D01*
X108638600Y-68445000D02*
X110124099Y-66959501D01*
X98000000Y-68445000D02*
X108638600Y-68445000D01*
X110124099Y-66959501D02*
X119860989Y-66959501D01*
X120920100Y-66277900D02*
X122451000Y-66277900D01*
X120542100Y-66277900D02*
X120920100Y-66277900D01*
X131160790Y-66162610D02*
X131300700Y-66022700D01*
X120728990Y-66727910D02*
X122637400Y-66727910D01*
X123202700Y-66162610D02*
X131160790Y-66162610D01*
X116636900Y-70820000D02*
X120728990Y-66727910D01*
X131300700Y-66022700D02*
X142331400Y-54992000D01*
X122637400Y-66727910D02*
X123202700Y-66162610D01*
X116000000Y-70820000D02*
X116636900Y-70820000D01*
X137668900Y-53582500D02*
X139591000Y-51660400D01*
X41443219Y-44641649D02*
X55180351Y-44641649D01*
X75631999Y-43500499D02*
X75882750Y-43751250D01*
X55180351Y-44641649D02*
X56321501Y-43500499D01*
X56321501Y-43500499D02*
X75631999Y-43500499D01*
X75631600Y-43500100D02*
X75882750Y-43751250D01*
X121689000Y-50038000D02*
X125233500Y-53582500D01*
X110877666Y-50038000D02*
X121689000Y-50038000D01*
X108466066Y-47626400D02*
X110877666Y-50038000D01*
X125233500Y-53582500D02*
X137668900Y-53582500D01*
X87554900Y-44256400D02*
X90924900Y-47626400D01*
X76387900Y-44256400D02*
X87554900Y-44256400D01*
X90924900Y-47626400D02*
X108466066Y-47626400D01*
X75882750Y-43751250D02*
X76387900Y-44256400D01*
X116000000Y-36820000D02*
X119099400Y-36820000D01*
X119099400Y-36820000D02*
X127111400Y-44832000D01*
X103000000Y-49340000D02*
X108620000Y-49340000D01*
X108620000Y-49340000D02*
X111000000Y-51720000D01*
X93000000Y-49340000D02*
X88370000Y-49340000D01*
X88370000Y-49340000D02*
X85000000Y-45970000D01*
X75000000Y-45970000D02*
X85000000Y-45970000D01*
X67000000Y-49340000D02*
X71630000Y-49340000D01*
X71630000Y-49340000D02*
X75000000Y-45970000D01*
X67000000Y-32340000D02*
X57000000Y-32340000D01*
X75000000Y-28980000D02*
X71640000Y-32340000D01*
X71640000Y-32340000D02*
X67000000Y-32340000D01*
X121000000Y-34720000D02*
X123492000Y-37212000D01*
X123492000Y-37212000D02*
X127111400Y-37212000D01*
X111000000Y-34720000D02*
X121000000Y-34720000D01*
X85000000Y-62970000D02*
X75000000Y-62970000D01*
X142331400Y-39752000D02*
X139791400Y-37212000D01*
X139791400Y-37212000D02*
X127111400Y-37212000D01*
X93000000Y-66345000D02*
X103000000Y-66345000D01*
X57000000Y-66345000D02*
X67000000Y-66345000D01*
X39242900Y-76861000D02*
X40114400Y-75989500D01*
X40114400Y-75989500D02*
X49204900Y-75989500D01*
X111000000Y-51720000D02*
X121000000Y-51720000D01*
X93000000Y-49340000D02*
X103000000Y-49340000D01*
X57000000Y-49340000D02*
X67000000Y-49340000D01*
X103000000Y-32340000D02*
X108620000Y-32340000D01*
X108620000Y-32340000D02*
X111000000Y-34720000D01*
X93000000Y-32340000D02*
X103000000Y-32340000D01*
X75000000Y-28980000D02*
X85000000Y-28980000D01*
X36279200Y-42985400D02*
X37150700Y-42113900D01*
X37150700Y-42113900D02*
X46241200Y-42113900D01*
X133550001Y-75949999D02*
X135000000Y-74500000D01*
X128659999Y-75949999D02*
X133550001Y-75949999D01*
X135000000Y-74500000D02*
X136500000Y-74500000D01*
X127660000Y-74950000D02*
X128659999Y-75949999D01*
X127111400Y-47372000D02*
X125207810Y-47372000D01*
X106910610Y-34440000D02*
X103782000Y-34440000D01*
X118464100Y-45993490D02*
X106910610Y-34440000D01*
X123829300Y-45993490D02*
X118464100Y-45993490D01*
X103782000Y-34440000D02*
X98000000Y-34440000D01*
X125207810Y-47372000D02*
X123829300Y-45993490D01*
X80000000Y-31080000D02*
X85922000Y-37002000D01*
X85922000Y-37002000D02*
X108836200Y-37002000D01*
X108836200Y-37002000D02*
X118277700Y-46443500D01*
X118277700Y-46443500D02*
X123642900Y-46443500D01*
X123642900Y-46443500D02*
X127111400Y-49912000D01*
X62000000Y-34440000D02*
X67437500Y-39877500D01*
X67437500Y-39877500D02*
X111074800Y-39877500D01*
X111074800Y-39877500D02*
X120293500Y-49096200D01*
X120293500Y-49096200D02*
X122132300Y-49096200D01*
X122132300Y-49096200D02*
X125488100Y-52452000D01*
X125488100Y-52452000D02*
X127111400Y-52452000D01*
X89467300Y-61277500D02*
X90845400Y-59899400D01*
X90845400Y-59899400D02*
X122645500Y-59899400D01*
X122645500Y-59899400D02*
X126449200Y-63703100D01*
X126449200Y-63703100D02*
X127568600Y-63703100D01*
X127568600Y-63703100D02*
X128658300Y-62613400D01*
X128658300Y-62613400D02*
X128658300Y-56538900D01*
X128658300Y-56538900D02*
X127111400Y-54992000D01*
X76644500Y-61277500D02*
X89467300Y-61277500D01*
X76409000Y-61277500D02*
X76644500Y-61277500D01*
X64833500Y-61277500D02*
X64960500Y-61277500D01*
X64960500Y-61277500D02*
X76644500Y-61277500D01*
X63045499Y-60505499D02*
X56799167Y-60505499D01*
X55727717Y-61576949D02*
X42924819Y-61576949D01*
X63817500Y-61277500D02*
X63045499Y-60505499D01*
X56799167Y-60505499D02*
X55727717Y-61576949D01*
X64960500Y-61277500D02*
X63817500Y-61277500D01*
X62000000Y-51440000D02*
X71496000Y-51440000D01*
X71496000Y-51440000D02*
X71630000Y-51440000D01*
X104487790Y-55719790D02*
X124045791Y-55719791D01*
X98799990Y-50031990D02*
X104487790Y-55719790D01*
X97275990Y-50031990D02*
X98799990Y-50031990D01*
X124045791Y-55719791D02*
X125858000Y-57532000D01*
X82996010Y-46420010D02*
X87317501Y-50741501D01*
X74036000Y-51440000D02*
X79055990Y-46420010D01*
X125858000Y-57532000D02*
X127111400Y-57532000D01*
X96566479Y-50741501D02*
X97275990Y-50031990D01*
X87317501Y-50741501D02*
X96566479Y-50741501D01*
X79055990Y-46420010D02*
X82996010Y-46420010D01*
X71496000Y-51440000D02*
X74036000Y-51440000D01*
X86881800Y-64516000D02*
X86614000Y-64516000D01*
X142331400Y-47372000D02*
X140775100Y-48928300D01*
X123442300Y-61540700D02*
X104676300Y-61540700D01*
X126055000Y-64153400D02*
X123442300Y-61540700D01*
X128028700Y-64153400D02*
X126055000Y-64153400D01*
X140775100Y-51407000D02*
X128028700Y-64153400D01*
X140775100Y-48928300D02*
X140775100Y-51407000D01*
X90938900Y-60458900D02*
X86881800Y-64516000D01*
X104676300Y-61540700D02*
X103594500Y-60458900D01*
X103594500Y-60458900D02*
X90938900Y-60458900D01*
X77216000Y-63500000D02*
X83312000Y-63500000D01*
X73660000Y-67056000D02*
X77216000Y-63500000D01*
X83312000Y-63500000D02*
X84328000Y-64516000D01*
X68363222Y-67056000D02*
X73660000Y-67056000D01*
X62000000Y-68445000D02*
X66974222Y-68445000D01*
X66974222Y-68445000D02*
X68363222Y-67056000D01*
X84328000Y-64516000D02*
X86614000Y-64516000D01*
X142331400Y-44832000D02*
X136126800Y-51036600D01*
X136126800Y-51036600D02*
X125344600Y-51036600D01*
X124197700Y-57158300D02*
X124197700Y-57157710D01*
X123923200Y-56883800D02*
X124197700Y-57158300D01*
X124197700Y-57158300D02*
X127111400Y-60072000D01*
X88549810Y-56619810D02*
X88101000Y-56171000D01*
X124197700Y-57157710D02*
X123659800Y-56619810D01*
X123659800Y-56619810D02*
X88549810Y-56619810D01*
X80000000Y-48070000D02*
X88101000Y-56171000D01*
X98000000Y-51440000D02*
X102729800Y-56169800D01*
X102729800Y-56169800D02*
X123846200Y-56169800D01*
X123846200Y-56169800D02*
X126656900Y-58980500D01*
X126656900Y-58980500D02*
X127591800Y-58980500D01*
X127591800Y-58980500D02*
X128207900Y-59596600D01*
X128207900Y-59596600D02*
X128207900Y-61515500D01*
X128207900Y-61515500D02*
X127111400Y-62612000D01*
X106787000Y-76781000D02*
X116844700Y-76781000D01*
X116844700Y-76781000D02*
X126526900Y-67098800D01*
X126526900Y-67098800D02*
X135304600Y-67098800D01*
X135304600Y-67098800D02*
X142331400Y-60072000D01*
M02*
