G04 #@! TF.GenerationSoftware,KiCad,Pcbnew,(5.1.4-0-10_14)*
G04 #@! TF.CreationDate,2020-11-29T23:03:10+01:00*
G04 #@! TF.ProjectId,haigha,68616967-6861-42e6-9b69-6361645f7063,2.1*
G04 #@! TF.SameCoordinates,Original*
G04 #@! TF.FileFunction,Copper,L2,Bot*
G04 #@! TF.FilePolarity,Positive*
%FSLAX46Y46*%
G04 Gerber Fmt 4.6, Leading zero omitted, Abs format (unit mm)*
G04 Created by KiCad (PCBNEW (5.1.4-0-10_14)) date 2020-11-29 23:03:10*
%MOMM*%
%LPD*%
G04 APERTURE LIST*
%ADD10C,2.153000*%
%ADD11C,1.524000*%
%ADD12C,2.000000*%
%ADD13O,2.500000X1.700000*%
%ADD14C,0.600000*%
%ADD15C,0.250000*%
G04 APERTURE END LIST*
D10*
X67000000Y-66345000D03*
X57000000Y-66345000D03*
X62000000Y-68445000D03*
X46241165Y-42113861D03*
X36279218Y-42985419D03*
X41443219Y-44641649D03*
D11*
X127111400Y-34672000D03*
X127111400Y-37212000D03*
X127111400Y-39752000D03*
X127111400Y-42292000D03*
X127111400Y-44832000D03*
X127111400Y-47372000D03*
X127111400Y-49912000D03*
X127111400Y-52452000D03*
X127111400Y-54992000D03*
X127111400Y-57532000D03*
X127111400Y-60072000D03*
X127111400Y-62612000D03*
X142331400Y-62612000D03*
X142331400Y-60072000D03*
X142331400Y-57532000D03*
X142331400Y-54992000D03*
X142331400Y-52452000D03*
X142331400Y-49912000D03*
X142331400Y-47372000D03*
X142331400Y-44832000D03*
X142331400Y-42292000D03*
X142331400Y-39752000D03*
X142331400Y-37212000D03*
X142331400Y-34672000D03*
D10*
X112173142Y-80013577D03*
X102513883Y-77425387D03*
X107887032Y-76691038D03*
X121000000Y-68720000D03*
X111000000Y-68720000D03*
X116000000Y-70820000D03*
X130977488Y-87739122D03*
X121914410Y-83512939D03*
X127333448Y-83722784D03*
X103000000Y-66345000D03*
X93000000Y-66345000D03*
X98000000Y-68445000D03*
X85000000Y-62970000D03*
X75000000Y-62970000D03*
X80000000Y-65070000D03*
X49204865Y-75989461D03*
X39242918Y-76861019D03*
X44406919Y-78517249D03*
X121000000Y-51720000D03*
X111000000Y-51720000D03*
X116000000Y-53820000D03*
X103000000Y-49340000D03*
X93000000Y-49340000D03*
X98000000Y-51440000D03*
X85000000Y-45970000D03*
X75000000Y-45970000D03*
X80000000Y-48070000D03*
X67000000Y-49340000D03*
X57000000Y-49340000D03*
X62000000Y-51440000D03*
X47722765Y-59049161D03*
X37760818Y-59920719D03*
X42924819Y-61576949D03*
X121000000Y-34720000D03*
X111000000Y-34720000D03*
X116000000Y-36820000D03*
X103000000Y-32340000D03*
X93000000Y-32340000D03*
X98000000Y-34440000D03*
X85000000Y-28980000D03*
X75000000Y-28980000D03*
X80000000Y-31080000D03*
X67000000Y-32340000D03*
X57000000Y-32340000D03*
X62000000Y-34440000D03*
D12*
X127660000Y-74950000D03*
X127660000Y-68450000D03*
D13*
X131000000Y-70300000D03*
X132500000Y-74500000D03*
X136500000Y-74500000D03*
X139500000Y-74500000D03*
X136500000Y-68550000D03*
X139500000Y-68550000D03*
X131000000Y-72750000D03*
X132500000Y-68550000D03*
D14*
X139591000Y-51660400D03*
X125344600Y-51036600D03*
D15*
X142331400Y-57532000D02*
X139591000Y-54791600D01*
X139591000Y-54791600D02*
X139591000Y-51660400D01*
X75000000Y-62970000D02*
X71625000Y-66345000D01*
X71625000Y-66345000D02*
X67000000Y-66345000D01*
X56121000Y-49340000D02*
X57000000Y-49340000D01*
X121599900Y-80103600D02*
X126753500Y-74950000D01*
X126753500Y-74950000D02*
X127660000Y-74950000D01*
X121599900Y-80103600D02*
X111073100Y-80103600D01*
X111000000Y-68720000D02*
X121000000Y-68720000D01*
X103000000Y-66345000D02*
X108625000Y-66345000D01*
X108625000Y-66345000D02*
X111000000Y-68720000D01*
X85000000Y-28980000D02*
X88360000Y-32340000D01*
X88360000Y-32340000D02*
X93000000Y-32340000D01*
X47722800Y-59049200D02*
X38632300Y-59049200D01*
X38632300Y-59049200D02*
X37760800Y-59920700D01*
X85000000Y-62970000D02*
X88375000Y-66345000D01*
X88375000Y-66345000D02*
X93000000Y-66345000D01*
X142331400Y-39752000D02*
X142331400Y-42292000D01*
X127660000Y-74950000D02*
X121430000Y-68720000D01*
X121430000Y-68720000D02*
X121000000Y-68720000D01*
X136500000Y-68550000D02*
X136500000Y-74500000D01*
X121599900Y-83198429D02*
X121914410Y-83512939D01*
X121599900Y-80103600D02*
X121599900Y-83198429D01*
X102513883Y-77425387D02*
X105192096Y-80103600D01*
X105192096Y-80103600D02*
X106136400Y-80103600D01*
X111073100Y-80103600D02*
X106136400Y-80103600D01*
X127577433Y-87739122D02*
X130977488Y-87739122D01*
X123351250Y-83512939D02*
X127577433Y-87739122D01*
X121914410Y-83512939D02*
X123351250Y-83512939D01*
X56015026Y-32340000D02*
X57000000Y-32340000D01*
X46241165Y-42113861D02*
X48209861Y-42113861D01*
X55436000Y-49340000D02*
X57000000Y-49340000D01*
X48209861Y-42113861D02*
X55436000Y-49340000D01*
X57000000Y-49340000D02*
X55477600Y-49340000D01*
X46241165Y-42113861D02*
X48310139Y-42113861D01*
X48310139Y-42113861D02*
X56642000Y-33782000D01*
X56642000Y-32698000D02*
X57000000Y-32340000D01*
X56642000Y-33782000D02*
X56642000Y-32698000D01*
X57000000Y-49771926D02*
X57000000Y-49340000D01*
X47722765Y-59049161D02*
X57000000Y-49771926D01*
X55018604Y-66345000D02*
X57000000Y-66345000D01*
X47722765Y-59049161D02*
X55018604Y-66345000D01*
X51054000Y-74140326D02*
X51054000Y-70358000D01*
X49204865Y-75989461D02*
X51054000Y-74140326D01*
X55018604Y-66393396D02*
X55018604Y-66345000D01*
X51054000Y-70358000D02*
X55018604Y-66393396D01*
X132500000Y-68550000D02*
X132500000Y-69725300D01*
X132500000Y-69725300D02*
X132609300Y-69834600D01*
X132609300Y-69834600D02*
X132609300Y-73215400D01*
X132609300Y-73215400D02*
X132500000Y-73324700D01*
X132500000Y-68550000D02*
X132500000Y-47680600D01*
X132500000Y-47680600D02*
X127111400Y-42292000D01*
X132500000Y-74500000D02*
X132500000Y-73324700D01*
X116000000Y-53820000D02*
X119655700Y-50164300D01*
X119655700Y-50164300D02*
X119655700Y-46570800D01*
X119655700Y-46570800D02*
X125803100Y-40423400D01*
X125803100Y-40423400D02*
X125803100Y-39459100D01*
X125803100Y-39459100D02*
X126780200Y-38482000D01*
X126780200Y-38482000D02*
X138521400Y-38482000D01*
X138521400Y-38482000D02*
X142331400Y-34672000D01*
X139500000Y-68550000D02*
X139500000Y-67374700D01*
X139500000Y-67374700D02*
X138953700Y-66828400D01*
X138953700Y-66828400D02*
X138953700Y-40589700D01*
X138953700Y-40589700D02*
X142331400Y-37212000D01*
X139500000Y-74500000D02*
X139500000Y-68550000D01*
X127660000Y-68450000D02*
X126024000Y-66814000D01*
X126024000Y-66814000D02*
X126024000Y-40839400D01*
X126024000Y-40839400D02*
X127111400Y-39752000D01*
X120213400Y-56167800D02*
X125344600Y-51036600D01*
X107262100Y-56167800D02*
X107475800Y-56167800D01*
X107475800Y-56167800D02*
X120213400Y-56167800D01*
X48990751Y-78517249D02*
X71340200Y-56167800D01*
X44406919Y-78517249D02*
X48990751Y-78517249D01*
X71340200Y-56167800D02*
X72356200Y-56167800D01*
X107475800Y-56167800D02*
X72356200Y-56167800D01*
X142331400Y-73775100D02*
X142331400Y-62612000D01*
X132383716Y-83722784D02*
X137353250Y-78753250D01*
X127333448Y-83722784D02*
X132383716Y-83722784D01*
X137353250Y-78753250D02*
X142331400Y-73775100D01*
X131000000Y-72750000D02*
X131000000Y-70300000D01*
M02*
