M48
; DRILL file {KiCad (5.1.4-0-10_14)} date Sunday, 29 November 2020 at 23:03:03
; FORMAT={-:-/ absolute / metric / decimal}
; #@! TF.CreationDate,2020-11-29T23:03:03+01:00
; #@! TF.GenerationSoftware,Kicad,Pcbnew,(5.1.4-0-10_14)
FMAT,2
METRIC
T1C0.400
T2C0.813
T3C1.000
T4C1.300
T5C1.346
T6C0.991
T7C1.200
T8C1.702
T9C3.429
%
G90
G05
T1
X125.345Y-51.037
X139.591Y-51.66
T2
X127.111Y-34.672
X127.111Y-37.212
X127.111Y-39.752
X127.111Y-42.292
X127.111Y-44.832
X127.111Y-47.372
X127.111Y-49.912
X127.111Y-52.452
X127.111Y-54.992
X127.111Y-57.532
X127.111Y-60.072
X127.111Y-62.612
X142.331Y-34.672
X142.331Y-37.212
X142.331Y-39.752
X142.331Y-42.292
X142.331Y-44.832
X142.331Y-47.372
X142.331Y-49.912
X142.331Y-52.452
X142.331Y-54.992
X142.331Y-57.532
X142.331Y-60.072
X142.331Y-62.612
T4
X127.66Y-68.45
X127.66Y-74.95
T5
X57.0Y-49.34
X62.0Y-51.44
X80.0Y-48.07
X67.0Y-49.34
X37.761Y-59.921
X42.925Y-61.577
X47.723Y-59.049
X93.0Y-49.34
X98.0Y-51.44
X103.0Y-49.34
X75.0Y-45.97
X85.0Y-45.97
X93.0Y-32.34
X98.0Y-34.44
X103.0Y-32.34
X111.0Y-51.72
X116.0Y-53.82
X121.0Y-51.72
X116.0Y-70.82
X57.0Y-32.34
X62.0Y-34.44
X67.0Y-32.34
X39.243Y-76.861
X44.407Y-78.517
X49.205Y-75.989
X57.0Y-66.345
X62.0Y-68.445
X36.279Y-42.985
X41.443Y-44.642
X46.241Y-42.114
X102.514Y-77.425
X107.887Y-76.691
X112.173Y-80.014
X121.0Y-68.72
X67.0Y-66.345
X111.0Y-68.72
X75.0Y-28.98
X80.0Y-31.08
X85.0Y-62.97
X85.0Y-28.98
X75.0Y-62.97
X80.0Y-65.07
X111.0Y-34.72
X116.0Y-36.82
X121.0Y-34.72
X93.0Y-66.345
X98.0Y-68.445
X103.0Y-66.345
X121.914Y-83.513
X127.333Y-83.723
X130.977Y-87.739
T6
X56.78Y-58.345
X67.22Y-58.345
X74.78Y-20.98
X85.22Y-20.98
X92.78Y-58.345
X103.22Y-58.345
X110.78Y-26.72
X121.22Y-26.72
X118.334Y-90.67
X103.22Y-24.34
X56.78Y-41.34
X67.22Y-41.34
X127.796Y-95.083
X74.78Y-37.97
X85.22Y-37.97
X92.78Y-24.34
X103.22Y-41.34
X92.78Y-41.34
X45.763Y-34.125
X100.231Y-85.096
X121.22Y-43.72
X47.245Y-51.06
X110.315Y-87.798
X110.78Y-43.72
X36.844Y-51.97
X35.363Y-35.035
X110.78Y-60.72
X56.78Y-24.34
X67.22Y-24.34
X38.327Y-68.911
X48.727Y-68.001
X121.22Y-60.72
X74.78Y-54.97
X85.22Y-54.97
T7
X134.3Y-70.65
X134.3Y-72.4
X141.3Y-70.65
X141.3Y-72.4
T8
X49.372Y-72.16
X56.5Y-62.545
X67.5Y-62.545
X35.45Y-39.243
X46.408Y-38.285
X101.047Y-80.966
X111.673Y-83.814
X110.5Y-47.92
X121.5Y-47.92
X56.5Y-28.54
X67.5Y-28.54
X110.5Y-64.92
X121.5Y-64.92
X38.414Y-73.119
X74.5Y-25.18
X85.5Y-25.18
X74.5Y-59.17
X85.5Y-59.17
X92.5Y-62.545
X110.5Y-30.92
X121.5Y-30.92
X103.5Y-62.545
X56.5Y-45.54
X67.5Y-45.54
X119.855Y-86.746
X129.825Y-91.394
X92.5Y-28.54
X103.5Y-28.54
X92.5Y-45.54
X103.5Y-45.54
X74.5Y-42.17
X85.5Y-42.17
X36.932Y-56.179
X47.89Y-55.22
T9
X43.893Y-72.64
X80.0Y-59.17
X98.0Y-62.545
X98.0Y-28.54
X116.0Y-47.92
X62.0Y-28.54
X40.929Y-38.764
X106.36Y-82.39
X116.0Y-64.92
X62.0Y-62.545
X80.0Y-25.18
X116.0Y-30.92
X124.84Y-89.07
X80.0Y-42.17
X62.0Y-45.54
X42.411Y-55.699
X98.0Y-45.54
T3
G00X131.25Y-70.3
M15
G01X130.75Y-70.3
M16
G05
G00X131.25Y-72.75
M15
G01X130.75Y-72.75
M16
G05
G00X132.75Y-68.55
M15
G01X132.25Y-68.55
M16
G05
G00X132.75Y-74.5
M15
G01X132.25Y-74.5
M16
G05
G00X136.75Y-68.55
M15
G01X136.25Y-68.55
M16
G05
G00X136.75Y-74.5
M15
G01X136.25Y-74.5
M16
G05
G00X139.75Y-68.55
M15
G01X139.25Y-68.55
M16
G05
G00X139.75Y-74.5
M15
G01X139.25Y-74.5
M16
G05
T0
M30
