G04 #@! TF.GenerationSoftware,KiCad,Pcbnew,(5.1.4-0-10_14)*
G04 #@! TF.CreationDate,2020-11-29T23:03:10+01:00*
G04 #@! TF.ProjectId,haigha,68616967-6861-42e6-9b69-6361645f7063,2.1*
G04 #@! TF.SameCoordinates,Original*
G04 #@! TF.FileFunction,Soldermask,Top*
G04 #@! TF.FilePolarity,Negative*
%FSLAX46Y46*%
G04 Gerber Fmt 4.6, Leading zero omitted, Abs format (unit mm)*
G04 Created by KiCad (PCBNEW (5.1.4-0-10_14)) date 2020-11-29 23:03:10*
%MOMM*%
%LPD*%
G04 APERTURE LIST*
%ADD10C,1.390600*%
%ADD11C,2.553000*%
%ADD12C,3.829000*%
%ADD13C,2.101800*%
%ADD14C,1.924000*%
%ADD15C,2.400000*%
%ADD16O,2.900000X2.100000*%
%ADD17C,1.600000*%
G04 APERTURE END LIST*
D10*
X56780000Y-58345000D03*
D11*
X67000000Y-66345000D03*
D12*
X62000000Y-62545000D03*
D11*
X57000000Y-66345000D03*
X62000000Y-68445000D03*
D10*
X67220000Y-58345000D03*
D13*
X67500000Y-62545000D03*
X56500000Y-62545000D03*
D10*
X35362810Y-35035035D03*
D11*
X46241165Y-42113861D03*
D12*
X40929000Y-38764100D03*
D11*
X36279218Y-42985419D03*
X41443219Y-44641649D03*
D10*
X45763082Y-34125129D03*
D13*
X46408071Y-38284743D03*
X35449929Y-39243457D03*
D14*
X127111400Y-34672000D03*
X127111400Y-37212000D03*
X127111400Y-39752000D03*
X127111400Y-42292000D03*
X127111400Y-44832000D03*
X127111400Y-47372000D03*
X127111400Y-49912000D03*
X127111400Y-52452000D03*
X127111400Y-54992000D03*
X127111400Y-57532000D03*
X127111400Y-60072000D03*
X127111400Y-62612000D03*
X142331400Y-62612000D03*
X142331400Y-60072000D03*
X142331400Y-57532000D03*
X142331400Y-54992000D03*
X142331400Y-52452000D03*
X142331400Y-49912000D03*
X142331400Y-47372000D03*
X142331400Y-44832000D03*
X142331400Y-42292000D03*
X142331400Y-39752000D03*
X142331400Y-37212000D03*
X142331400Y-34672000D03*
D10*
X100230827Y-85095853D03*
D11*
X112173142Y-80013577D03*
D12*
X106360000Y-82390000D03*
D11*
X102513883Y-77425387D03*
X107887032Y-76691038D03*
D10*
X110315093Y-87797924D03*
D13*
X111672592Y-83813505D03*
X101047408Y-80966495D03*
D10*
X110780000Y-60720000D03*
D11*
X121000000Y-68720000D03*
D12*
X116000000Y-64920000D03*
D11*
X111000000Y-68720000D03*
X116000000Y-70820000D03*
D10*
X121220000Y-60720000D03*
D13*
X121500000Y-64920000D03*
X110500000Y-64920000D03*
D10*
X118334077Y-90670425D03*
D11*
X130977488Y-87739122D03*
D12*
X124840000Y-89070000D03*
D11*
X121914410Y-83512939D03*
X127333448Y-83722784D03*
D10*
X127795930Y-95082560D03*
D13*
X129824693Y-91394400D03*
X119855307Y-86745600D03*
D10*
X92780000Y-58345000D03*
D11*
X103000000Y-66345000D03*
D12*
X98000000Y-62545000D03*
D11*
X93000000Y-66345000D03*
X98000000Y-68445000D03*
D10*
X103220000Y-58345000D03*
D13*
X103500000Y-62545000D03*
X92500000Y-62545000D03*
D10*
X74780000Y-54970000D03*
D11*
X85000000Y-62970000D03*
D12*
X80000000Y-59170000D03*
D11*
X75000000Y-62970000D03*
X80000000Y-65070000D03*
D10*
X85220000Y-54970000D03*
D13*
X85500000Y-59170000D03*
X74500000Y-59170000D03*
D10*
X38326510Y-68910635D03*
D11*
X49204865Y-75989461D03*
D12*
X43892700Y-72639700D03*
D11*
X39242918Y-76861019D03*
X44406919Y-78517249D03*
D10*
X48726782Y-68000729D03*
D13*
X49371771Y-72160343D03*
X38413629Y-73119057D03*
D10*
X110780000Y-43720000D03*
D11*
X121000000Y-51720000D03*
D12*
X116000000Y-47920000D03*
D11*
X111000000Y-51720000D03*
X116000000Y-53820000D03*
D10*
X121220000Y-43720000D03*
D13*
X121500000Y-47920000D03*
X110500000Y-47920000D03*
D10*
X92780000Y-41340000D03*
D11*
X103000000Y-49340000D03*
D12*
X98000000Y-45540000D03*
D11*
X93000000Y-49340000D03*
X98000000Y-51440000D03*
D10*
X103220000Y-41340000D03*
D13*
X103500000Y-45540000D03*
X92500000Y-45540000D03*
D10*
X74780000Y-37970000D03*
D11*
X85000000Y-45970000D03*
D12*
X80000000Y-42170000D03*
D11*
X75000000Y-45970000D03*
X80000000Y-48070000D03*
D10*
X85220000Y-37970000D03*
D13*
X85500000Y-42170000D03*
X74500000Y-42170000D03*
D10*
X56780000Y-41340000D03*
D11*
X67000000Y-49340000D03*
D12*
X62000000Y-45540000D03*
D11*
X57000000Y-49340000D03*
X62000000Y-51440000D03*
D10*
X67220000Y-41340000D03*
D13*
X67500000Y-45540000D03*
X56500000Y-45540000D03*
D10*
X36844410Y-51970335D03*
D11*
X47722765Y-59049161D03*
D12*
X42410600Y-55699400D03*
D11*
X37760818Y-59920719D03*
X42924819Y-61576949D03*
D10*
X47244682Y-51060429D03*
D13*
X47889671Y-55220043D03*
X36931529Y-56178757D03*
D10*
X110780000Y-26720000D03*
D11*
X121000000Y-34720000D03*
D12*
X116000000Y-30920000D03*
D11*
X111000000Y-34720000D03*
X116000000Y-36820000D03*
D10*
X121220000Y-26720000D03*
D13*
X121500000Y-30920000D03*
X110500000Y-30920000D03*
D10*
X92780000Y-24340000D03*
D11*
X103000000Y-32340000D03*
D12*
X98000000Y-28540000D03*
D11*
X93000000Y-32340000D03*
X98000000Y-34440000D03*
D10*
X103220000Y-24340000D03*
D13*
X103500000Y-28540000D03*
X92500000Y-28540000D03*
D10*
X74780000Y-20980000D03*
D11*
X85000000Y-28980000D03*
D12*
X80000000Y-25180000D03*
D11*
X75000000Y-28980000D03*
X80000000Y-31080000D03*
D10*
X85220000Y-20980000D03*
D13*
X85500000Y-25180000D03*
X74500000Y-25180000D03*
D10*
X56780000Y-24340000D03*
D11*
X67000000Y-32340000D03*
D12*
X62000000Y-28540000D03*
D11*
X57000000Y-32340000D03*
X62000000Y-34440000D03*
D10*
X67220000Y-24340000D03*
D13*
X67500000Y-28540000D03*
X56500000Y-28540000D03*
D15*
X127660000Y-74950000D03*
X127660000Y-68450000D03*
D16*
X131000000Y-70300000D03*
X132500000Y-74500000D03*
X136500000Y-74500000D03*
X139500000Y-74500000D03*
D17*
X134300000Y-72400000D03*
X141300000Y-72400000D03*
D16*
X136500000Y-68550000D03*
X139500000Y-68550000D03*
X131000000Y-72750000D03*
X132500000Y-68550000D03*
D17*
X141300000Y-70650000D03*
X134300000Y-70650000D03*
M02*
